<svg width="24" height="24" viewBox="0 0 24 24" fill="none" xmlns="http://www.w3.org/2000/svg">
<g clip-path="url(#clip0_33_2)">
<path d="M12 18.75C11.1337 18.7507 10.2807 18.5368 9.51731 18.1273C8.7539 17.7178 8.10384 17.1256 7.62525 16.4035L8.87475 15.5729C9.21688 16.0886 9.6813 16.5116 10.2266 16.8042C10.7719 17.0969 11.3811 17.25 12 17.25C12.6189 17.25 13.2281 17.0969 13.7734 16.8042C14.3187 16.5116 14.7831 16.0886 15.1252 15.5729L16.3748 16.4035C15.8962 17.1256 15.2461 17.7178 14.4827 18.1273C13.7193 18.5368 12.8663 18.7507 12 18.75Z" fill="white"/>
<path d="M15 10.5C14.7033 10.5 14.4133 10.588 14.1666 10.7528C13.92 10.9176 13.7277 11.1519 13.6142 11.426C13.5006 11.7001 13.4709 12.0017 13.5288 12.2926C13.5867 12.5836 13.7296 12.8509 13.9393 13.0607C14.1491 13.2704 14.4164 13.4133 14.7074 13.4712C14.9983 13.5291 15.2999 13.4994 15.574 13.3858C15.8481 13.2723 16.0824 13.08 16.2472 12.8334C16.412 12.5867 16.5 12.2967 16.5 12C16.5019 11.8025 16.4645 11.6065 16.3898 11.4237C16.3151 11.2408 16.2047 11.0747 16.065 10.935C15.9253 10.7953 15.7592 10.6849 15.5763 10.6102C15.3934 10.5355 15.1975 10.4981 15 10.5Z" fill="white"/>
<path d="M9 10.5C8.70333 10.5 8.41332 10.588 8.16664 10.7528C7.91997 10.9176 7.72771 11.1519 7.61418 11.426C7.50065 11.7001 7.47094 12.0017 7.52882 12.2926C7.5867 12.5836 7.72956 12.8509 7.93934 13.0607C8.14912 13.2704 8.41639 13.4133 8.70736 13.4712C8.99834 13.5291 9.29994 13.4994 9.57402 13.3858C9.84811 13.2723 10.0824 13.08 10.2472 12.8334C10.412 12.5867 10.5 12.2967 10.5 12C10.5019 11.8025 10.4645 11.6065 10.3898 11.4237C10.3151 11.2408 10.2047 11.0747 10.065 10.935C9.92532 10.7953 9.75918 10.6849 9.57632 10.6102C9.39345 10.5355 9.19752 10.4981 9 10.5Z" fill="white"/>
<path d="M22.5 12V10.5H21V7.5C20.9991 6.70462 20.6827 5.94208 20.1203 5.37967C19.5579 4.81725 18.7954 4.50089 18 4.5H16.5V1.5H15V4.5H9V1.5H7.5V4.5H6C5.20462 4.50089 4.44208 4.81725 3.87967 5.37967C3.31725 5.94208 3.00089 6.70462 3 7.5V10.5H1.5V12H3V15.75H1.5V17.25H3V19.5C3.00089 20.2954 3.31725 21.0579 3.87967 21.6203C4.44208 22.1827 5.20462 22.4991 6 22.5H18C18.7954 22.4991 19.5579 22.1827 20.1203 21.6203C20.6827 21.0579 20.9991 20.2954 21 19.5V17.25H22.5V15.75H21V12H22.5ZM19.5 19.5C19.4995 19.8977 19.3414 20.279 19.0602 20.5602C18.779 20.8414 18.3977 20.9995 18 21H6C5.60232 20.9995 5.22105 20.8414 4.93984 20.5602C4.65864 20.279 4.50046 19.8977 4.5 19.5V7.5C4.50046 7.10232 4.65864 6.72105 4.93984 6.43984C5.22105 6.15864 5.60232 6.00046 6 6H18C18.3977 6.00046 18.779 6.15864 19.0602 6.43984C19.3414 6.72105 19.4995 7.10232 19.5 7.5V19.5Z" fill="white"/>
</g>
<defs>
<clipPath id="clip0_33_2">
<rect width="24" height="24" fill="currentColor"/>
</clipPath>
</defs>
</svg>
