<svg width="24" height="24" viewBox="0 0 24 24" fill="none" xmlns="http://www.w3.org/2000/svg">
<path fill-rule="evenodd" clip-rule="evenodd" d="M6.225 3.75C6.68063 3.75 7.05 4.11937 7.05 4.575V5.4H7.875C8.33063 5.4 8.7 5.76937 8.7 6.225C8.7 6.68063 8.33063 7.05 7.875 7.05H7.05V7.875C7.05 8.33063 6.68063 8.7 6.225 8.7C5.76937 8.7 5.4 8.33063 5.4 7.875V7.05H4.575C4.11937 7.05 3.75 6.68063 3.75 6.225C3.75 5.76937 4.11937 5.4 4.575 5.4H5.4V4.575C5.4 4.11937 5.76937 3.75 6.225 3.75ZM12.825 3.75C13.1801 3.75 13.4953 3.97721 13.6076 4.31407L15.3692 9.59775L19.7147 11.2276C20.0367 11.3483 20.25 11.6561 20.25 12C20.25 12.3439 20.0367 12.6517 19.7147 12.7724L15.3692 14.4022L13.6076 19.6859C13.4953 20.0227 13.1801 20.25 12.825 20.25C12.4699 20.25 12.1546 20.0227 12.0424 19.6859L10.2808 14.4022L5.93529 12.7724C5.61331 12.6517 5.4 12.3439 5.4 12C5.4 11.6561 5.61331 11.3483 5.93529 11.2276L10.2808 9.59775L12.0424 4.31407C12.1546 3.97721 12.4699 3.75 12.825 3.75ZM7.05 15.3C7.50562 15.3 7.875 15.6694 7.875 16.125V16.95H8.7C9.15563 16.95 9.525 17.3194 9.525 17.775C9.525 18.2306 9.15563 18.6 8.7 18.6H7.875V19.425C7.875 19.8806 7.50562 20.25 7.05 20.25C6.59437 20.25 6.225 19.8806 6.225 19.425V18.6H5.4C4.94437 18.6 4.575 18.2306 4.575 17.775C4.575 17.3194 4.94437 16.95 5.4 16.95H6.225V16.125C6.225 15.6694 6.59437 15.3 7.05 15.3Z" fill="white"/>
</svg>
