<svg width="20" height="20" viewBox="0 0 20 20" fill="none" xmlns="http://www.w3.org/2000/svg">
<path d="M9.67959 11.1039L7.50853 8.93124C7.47859 8.90128 7.45341 8.8664 7.43299 8.82659C7.41256 8.7868 7.40234 8.7471 7.40234 8.70749C7.40234 8.62825 7.42938 8.56019 7.48345 8.5033C7.5375 8.44641 7.60876 8.41797 7.69722 8.41797H12.303C12.3915 8.41797 12.4627 8.44818 12.5168 8.50861C12.5709 8.56905 12.5979 8.63954 12.5979 8.72011C12.5979 8.72916 12.5624 8.79939 12.4914 8.93082L10.3206 11.1039C10.2832 11.1413 10.2348 11.1739 10.1754 11.2016C10.116 11.2294 10.0575 11.2433 10.0001 11.2433C9.94268 11.2433 9.88426 11.2294 9.82484 11.2016C9.76541 11.1739 9.717 11.1413 9.67959 11.1039Z" fill="currentColor"/>
</svg>
