<svg xmlns="http://www.w3.org/2000/svg" height="20" viewBox="0 -960 960 960" width="20"><path d="M361.784-409.615q-19.861 0-33.611-13.581-13.75-13.581-13.75-33.443 0-19.861 13.581-33.611Q341.585-504 361.446-504q19.862 0 33.612 13.581 13.75 13.581 13.75 33.442 0 19.862-13.581 33.612-13.581 13.75-33.443 13.75Zm236.77 0q-19.862 0-33.612-13.581-13.75-13.581-13.75-33.443 0-19.861 13.581-33.611Q578.354-504 598.216-504q19.861 0 33.611 13.581 13.75 13.581 13.75 33.442 0 19.862-13.581 33.612-13.581 13.75-33.442 13.75ZM480.445-172.038q128.356 0 217.936-90.015 89.581-90.015 89.581-217.846 0-22.895-5-52.072-5-29.176-13-51.221-21 5-37.193 6.5-16.192 1.5-39.24 1.5-84.896 0-160.462-32.943-75.567-32.942-135.19-95.442-36.569 76.885-92.108 127.481-55.538 50.596-131.731 76.147-1 3.969-1.5 9.954-.5 5.984-.5 9.953 0 127.927 90.026 217.965 90.026 90.039 218.381 90.039Zm-.353 47.96q-73.528 0-138.254-27.825-64.726-27.824-113.464-76.595-48.738-48.77-76.517-113.513-27.779-64.744-27.779-138.356 0-73.693 27.825-138.607 27.824-64.914 76.595-113.152 48.77-48.238 113.513-76.017 64.744-27.779 138.356-27.779 73.693 0 138.613 28.065 64.921 28.064 112.944 76.175 48.023 48.11 76.01 112.975 27.988 64.865 27.988 138.615 0 73.528-27.825 138.254-27.824 64.726-76.095 113.464-48.27 48.738-113.186 76.517-64.916 27.779-138.724 27.779Zm-77.17-654.769q50.577 75.464 130.159 115.175 79.582 39.712 160.57 39.712 14.474 0 25.888-.692 11.414-.693 27.269-4.319-47.076-78.951-116.534-118.971-69.458-40.02-149.957-40.02-18.471 0-38.485 2.424-20.014 2.423-38.91 6.691ZM183.653-554.729q61.078-27.115 112.829-78.847 51.751-51.731 72.75-133.309-82.77 39.884-126.924 91.654-44.155 51.77-58.655 120.502Zm219.269-224.078Zm-33.69 11.922Z"/></svg>