<svg xmlns="http://www.w3.org/2000/svg" height="20" viewBox="0 -960 960 960" width="20"><path d="M605.726-524.501q21.12 0 35.908-14.783 14.788-14.784 14.788-35.904 0-21.119-14.783-35.908-14.784-14.788-35.904-14.788-21.12 0-35.908 14.784-14.788 14.783-14.788 35.903 0 21.12 14.784 35.908 14.783 14.788 35.903 14.788Zm-251.461 0q21.12 0 35.908-14.783 14.788-14.784 14.788-35.904 0-21.119-14.784-35.908-14.783-14.788-35.903-14.788-21.12 0-35.908 14.784-14.788 14.783-14.788 35.903 0 21.12 14.783 35.908 14.784 14.788 35.904 14.788Zm126.102 400.423q-73.427 0-138.341-27.825-64.914-27.824-113.652-76.595-48.738-48.77-76.517-113.513-27.779-64.744-27.779-138.356 0-73.693 27.825-138.107 27.824-64.414 76.595-113.152 48.77-48.738 113.513-76.517 64.744-27.779 138.356-27.779 73.693 0 138.107 27.825 64.414 27.824 113.152 76.595 48.738 48.77 76.517 113.28 27.779 64.509 27.779 137.855 0 73.427-27.825 138.341-27.824 64.914-76.595 113.652-48.77 48.738-113.28 76.517-64.509 27.779-137.855 27.779Zm-.956-181.077q46.817 0 88.599-17.685 41.783-17.686 67.769-54.096 4.797-9.603.409-18.237-4.388-8.635-14.933-8.635H338.834q-10.641 0-15.525 8.635-4.885 8.634.987 18.057 25.897 36.577 66.992 54.269 41.095 17.692 88.123 17.692Z"/></svg>