<svg width="16" height="16" viewBox="0 0 16 16" fill="none" xmlns="http://www.w3.org/2000/svg">
<path fill-rule="evenodd" clip-rule="evenodd" d="M4.15 2.5C4.45376 2.5 4.7 2.74624 4.7 3.05V3.6H5.25C5.55375 3.6 5.8 3.84625 5.8 4.15C5.8 4.45376 5.55375 4.7 5.25 4.7H4.7V5.25C4.7 5.55375 4.45376 5.8 4.15 5.8C3.84625 5.8 3.6 5.55375 3.6 5.25V4.7H3.05C2.74624 4.7 2.5 4.45376 2.5 4.15C2.5 3.84625 2.74624 3.6 3.05 3.6H3.6V3.05C3.6 2.74624 3.84625 2.5 4.15 2.5ZM8.55 2.5C8.78675 2.5 8.9969 2.65147 9.07175 2.87605L10.2461 6.3985L13.1432 7.48505C13.3578 7.56555 13.5 7.77075 13.5 8C13.5 8.22925 13.3578 8.43445 13.1432 8.51495L10.2461 9.6015L9.07175 13.124C8.9969 13.3485 8.78675 13.5 8.55 13.5C8.31325 13.5 8.1031 13.3485 8.02825 13.124L6.8539 9.6015L3.95686 8.51495C3.74221 8.43445 3.6 8.22925 3.6 8C3.6 7.77075 3.74221 7.56555 3.95686 7.48505L6.8539 6.3985L8.02825 2.87605C8.1031 2.65147 8.31325 2.5 8.55 2.5ZM4.7 10.2C5.00375 10.2 5.25 10.4462 5.25 10.75V11.3H5.8C6.10375 11.3 6.35 11.5463 6.35 11.85C6.35 12.1538 6.10375 12.4 5.8 12.4H5.25V12.95C5.25 13.2537 5.00375 13.5 4.7 13.5C4.39624 13.5 4.15 13.2537 4.15 12.95V12.4H3.6C3.29624 12.4 3.05 12.1538 3.05 11.85C3.05 11.5463 3.29624 11.3 3.6 11.3H4.15V10.75C4.15 10.4462 4.39624 10.2 4.7 10.2Z" fill="LightYellow "/>
</svg>
